<svg xmlns="http://www.w3.org/2000/svg" width="321.056" height="315.041" viewBox="0 0 321.056 315.041"><path d="M50.306.094,0,0,115.545,271.02a72.424,72.424,0,0,0,66.785,44.021l48.541-.114L116.907,44.4A72.414,72.414,0,0,0,50.306.094Z" fill="#fff"/><g transform="translate(213.427)"><path d="M69.394,19.668h0a51.822,51.822,0,0,0,.365,73.286h0a51.823,51.823,0,0,0,73.29-.365h0a65.567,65.567,0,0,0,18.978-46.461L161.795,0h0L115.667.231A65.581,65.581,0,0,0,69.394,19.668Z" transform="translate(-54.398)" fill="#fff"/></g></svg>