<?xml version="1.0" encoding="utf-8"?>
<!-- Generator: Adobe Illustrator 24.3.0, SVG Export Plug-In . SVG Version: 6.00 Build 0)  -->
<svg version="1.1" id="Layer_1" xmlns="http://www.w3.org/2000/svg" xmlns:xlink="http://www.w3.org/1999/xlink" x="0px" y="0px"
	 viewBox="0 0 24 24" style="enable-background:new 0 0 24 24;" xml:space="preserve">
<style type="text/css">
	.st0{fill:#313EEF;}
</style>
<path class="st0" d="M12,24c6.6,0,12-5.4,12-12S18.6,0,12,0S0,5.4,0,12S5.4,24,12,24z M9.5,7.3c-0.4-0.4-0.4-1.1,0-1.6
	c0.2-0.2,0.5-0.3,0.8-0.3c0.3,0,0.6,0.1,0.8,0.3l5.4,5.4c0.4,0.4,0.4,1.1,0,1.5L11,18.2c-0.4,0.4-1.1,0.4-1.6,0s-0.4-1.1,0-1.6
	l4.7-4.7L9.5,7.3z"/>
</svg>
