<svg xmlns="http://www.w3.org/2000/svg" width="1313.933" height="1313.935" viewBox="0 0 1313.933 1313.935">
  <path id="Path_46" data-name="Path 46" d="M2778.143,2091.978h0c-59.18-46.21-69.531-131.887-23.242-191.089l-.2-.2c74.609-95.545,57.813-233.685-37.7-308.42-95.725-74.54-233.615-57.737-308.246,37.906l-.391-.293a136.011,136.011,0,0,1-191.037,23.446h0c-95.508-74.736-233.42-57.737-308.225,37.808-74.609,95.545-57.617,233.586,37.7,308.323h0c59.2,46.4,69.748,131.886,23.438,191.09l.391.293c-74.8,95.447-58.008,233.586,37.715,308.323,95.314,74.735,233.422,57.736,308.227-37.808l.2.2a135.989,135.989,0,0,1,191.037-23.447h0c95.508,74.737,233.615,57.836,308.225-37.808C2890.643,2304.754,2873.846,2166.713,2778.143,2091.978Zm-218.967,280.284h0c-95.51-74.639-233.42-57.738-308.225,37.807l-.2-.2c-46.311,59.2-131.857,69.754-191.037,23.447-59.2-46.307-69.748-131.887-23.437-191.09l-.2-.1c74.609-95.643,57.813-233.781-37.912-308.42l.2-.1a135.907,135.907,0,0,1-23.437-190.992c46.311-59.2,131.857-69.753,191.037-23.446h0c95.725,74.736,233.615,57.737,308.246-37.71l.391.1c46.094-59.2,131.641-69.753,191.016-23.447a136.143,136.143,0,0,1,23.242,191.09l.215.293c-74.629,95.447-57.637,233.587,37.7,308.323h0c59.18,46.307,69.727,131.887,23.438,191.09A136.087,136.087,0,0,1,2559.176,2372.262Z" transform="matrix(0.391, -0.921, 0.921, 0.391, -2149.308, 2032.404)" fill="url(#blue-green-gradient)" stroke="none"/>
  <linearGradient id="blue-green-gradient">
    <stop offset="0%" stop-color="#313FEF" />
    <stop offset="100%" stop-color="#5CDD9D" />
  </linearGradient>
</svg>
